<svg xmlns="http://www.w3.org/2000/svg" width="500" height="500" viewBox="0 0 500 500" class="undefined"><style>.a{fill:#C9C9C9;}</style><path d="M253.1 186.3c-4.8 4.9-8.9 10.6-12.1 16.7 -0.2 0.3-0.3 0.6-0.5 0.9 0 0 0 0 0 0 -0.9 2.1-1.8 4.1-2.8 6.1 0 0 0 0 0 0 -4.1 8.8-8.5 17.4-13.2 25.9 -1.4-2.7-2.8-5.4-4.1-8.1 -0.8-3.6-2.4-6.9-4.6-9.6 -4.3-5.4-11-8.9-18.5-8.9 -7.7 0-14.5 3.7-18.8 9.4 -1.4 1.9-2.6 4-3.4 6.2 -4.4 7.8-9 15.5-13.8 23 -6.5 10.2-13.5 20.1-20.8 29.8 -2 2.6-4.1 5.3-6.1 7.8 -9.6 12-19.8 23.5-30.6 34.4H30.6c30-23.3 56.5-50.9 78.6-81.8 8.5-11.8 16.3-24.2 23.5-36.9 0 0 0 0 0 0 1.1-1.9 2.2-3.9 3.2-5.9 0 0 0 0 0 0 0.2-0.3 0.3-0.6 0.5-0.8 12.1-19.3 33.1-32.5 57.2-33.8 1.3-0.1 2.7-0.1 4-0.1 2.3 0 4.6 0.1 6.8 0.3C223.9 162.4 241.2 172 253.1 186.3z" class="a"/><path d="M362.9 319.7h-61.6c-8.6-10.3-16.8-21.1-24.5-32.2 5.9-9.2 11.5-18.7 16.7-28.4 3.4-6.3 6.7-12.7 9.8-19.2C320.1 269.8 338.2 295.9 362.9 319.7z" class="a"/><path d="M469.3 319.7h-66.4c-10.5-11-20.4-22.5-29.8-34.6 -12.6-16.3-24.2-33.5-34.5-51.6 -1-3.5-2.8-6.7-5.2-9.3 -4.6-5.2-11.5-8.3-19-7.8 -7.7 0.5-14.3 4.5-18.2 10.5 -1.3 2-2.4 4.1-3 6.4 -3.9 8.1-8 16-12.4 23.8 -5.9 10.6-12.3 20.9-19.1 30.9 -1.9 2.8-3.7 5.5-5.7 8.2 -5.7 8.1-11.7 15.9-17.9 23.6h-65.5c21.1-20.9 39.8-44.3 55.7-69.5 7.8-12.3 14.9-25.1 21.3-38.3 0 0 0 0 0 0 1-2 1.9-4 2.9-6.1 0 0 0 0 0 0 0.2-0.3 0.3-0.6 0.5-0.9 11-20 31.1-34.4 55.1-37.1 1.3-0.1 2.7-0.3 4-0.3 2.3-0.1 4.6-0.2 6.8-0.1 21.8 0.8 41.4 11.3 54.2 27.6 3.6 6.9 7.3 13.7 11.3 20.3C408.8 256.6 432.9 290.4 469.3 319.7z" class="a"/></svg>